<svg id="color" enable-background="new 0 0 24 24" height="512" viewBox="0 0 24 24" width="512" xmlns="http://www.w3.org/2000/svg"><path d="m18.5 8h-15c-1.933 0-3.5-1.567-3.5-3.5 0-1.933 1.567-3.5 3.5-3.5h15c1.933 0 3.5 1.567 3.5 3.5 0 1.933-1.567 3.5-3.5 3.5z" fill="#cfd8dc"/><path d="m18.5 15h-15c-1.933 0-3.5-1.567-3.5-3.5 0-1.933 1.567-3.5 3.5-3.5h15c1.933 0 3.5 1.567 3.5 3.5 0 1.933-1.567 3.5-3.5 3.5z" fill="#90a4ae"/><path d="m18.5 22h-15c-1.933 0-3.5-1.567-3.5-3.5 0-1.933 1.567-3.5 3.5-3.5h15c1.933 0 3.5 1.567 3.5 3.5 0 1.933-1.567 3.5-3.5 3.5z" fill="#cfd8dc"/><path d="m11 1h-7.5c-1.933 0-3.5 1.567-3.5 3.5s1.567 3.5 3.5 3.5h7.5z" fill="#b4bcc0"/><path d="m11 8h-7.5c-1.933 0-3.5 1.567-3.5 3.5s1.567 3.5 3.5 3.5h7.5z" fill="#7d8f97"/><path d="m11 15h-7.5c-1.933 0-3.5 1.567-3.5 3.5s1.567 3.5 3.5 3.5h7.5z" fill="#b4bcc0"/><g fill="#fafafa"><circle cx="3.5" cy="4.5" r="1"/><circle cx="8.5" cy="4.5" r="1"/><circle cx="3.5" cy="11.5" r="1"/><circle cx="8.5" cy="11.5" r="1"/><circle cx="3.5" cy="18.5" r="1"/><circle cx="8.5" cy="18.5" r="1"/></g><path d="m4.5 4.5h-2c0 .553.448 1 1 1s1-.447 1-1z" fill="#dadada"/><path d="m9.5 4.5h-2c0 .553.448 1 1 1s1-.447 1-1z" fill="#dadada"/><path d="m4.5 11.5h-2c0 .553.448 1 1 1s1-.447 1-1z" fill="#dadada"/><path d="m9.5 11.5h-2c0 .553.448 1 1 1s1-.447 1-1z" fill="#dadada"/><path d="m4.5 18.5h-2c0 .553.448 1 1 1s1-.447 1-1z" fill="#dadada"/><path d="m9.5 18.5h-2c0 .553.448 1 1 1s1-.447 1-1z" fill="#dadada"/><path d="m17.5 11c-3.584 0-6.5 2.916-6.5 6.5s2.916 6.5 6.5 6.5 6.5-2.916 6.5-6.5-2.916-6.5-6.5-6.5z" fill="#4caf50"/><path d="m20 18.5h-1.5v1.5c0 .553-.448 1-1 1s-1-.447-1-1v-1.5h-1.5c-.552 0-1-.447-1-1s.448-1 1-1h1.5v-1.5c0-.553.448-1 1-1s1 .447 1 1v1.5h1.5c.552 0 1 .447 1 1s-.448 1-1 1z" fill="#fff"/><path d="m17.5 11c-3.584 0-6.5 2.916-6.5 6.5s2.916 6.5 6.5 6.5v-3c-.552 0-1-.447-1-1v-1.5h-1.5c-.552 0-1-.447-1-1s.448-1 1-1h1.5v-1.5c0-.553.448-1 1-1z" fill="#429846"/><path d="m17.5 14c-.552 0-1 .447-1 1v1.5h-1.5c-.552 0-1 .447-1 1s.448 1 1 1h1.5v1.5c0 .553.448 1 1 1z" fill="#dedede"/></svg>