<?xml version="1.0" encoding="iso-8859-1"?>
<!-- Generator: Adobe Illustrator 19.0.0, SVG Export Plug-In . SVG Version: 6.00 Build 0)  -->
<svg version="1.1" id="Capa_1" xmlns="http://www.w3.org/2000/svg" xmlns:xlink="http://www.w3.org/1999/xlink" x="0px" y="0px"
	 viewBox="0 0 480 480" style="enable-background:new 0 0 480 480;" xml:space="preserve">
<linearGradient id="SVGID_1_" gradientUnits="userSpaceOnUse" x1="-59.0289" y1="581.625" x2="28.8151" y2="581.625" gradientTransform="matrix(8 0 0 -8 454.9996 4905)">
	<stop  offset="0" style="stop-color:#E93E3A"/>
	<stop  offset="0.353" style="stop-color:#ED683C"/>
	<stop  offset="0.703" style="stop-color:#F3903F"/>
	<stop  offset="1" style="stop-color:#FDC70C"/>
</linearGradient>
<path style="fill:url(#SVGID_1_);" d="M478.208,322.976c-0.232-0.568-0.544-1.088-0.8-1.6c-0.38-0.8-0.802-1.58-1.264-2.336
	c-0.344-0.528-0.752-1.008-1.136-1.512c-0.384-0.504-0.704-1.032-1.12-1.496c0.416-0.464,0.744-1,1.12-1.496
	c0.376-0.496,0.8-0.984,1.136-1.52c0.464-0.752,0.886-1.529,1.264-2.328c0.272-0.544,0.584-1.064,0.8-1.6
	c0.354-0.933,0.65-1.887,0.888-2.856c0.136-0.504,0.328-0.984,0.432-1.504c0.312-1.557,0.47-3.14,0.472-4.728v-32
	c-0.009-1.504-0.162-3.005-0.456-4.48c-0.088-0.472-0.232-0.92-0.352-1.384c-0.239-0.963-0.533-1.911-0.88-2.84
	c-0.2-0.504-0.424-0.984-0.656-1.472c-0.395-0.824-0.835-1.625-1.32-2.4c-0.28-0.464-0.56-0.912-0.88-1.344
	c-0.562-0.776-1.171-1.516-1.824-2.216c-0.32-0.352-0.608-0.712-0.952-1.048c-0.947-0.915-1.963-1.754-3.04-2.512
	c-0.089-0.062-0.174-0.129-0.256-0.2c-1.189-0.788-2.445-1.47-3.752-2.04c-0.424-0.184-0.88-0.312-1.32-0.48
	c-0.664-0.248-1.312-0.536-2-0.728c0.322-0.873,0.589-1.766,0.8-2.672c0.128-0.496,0.328-0.96,0.432-1.464
	c0.307-1.554,0.46-3.135,0.456-4.72v-32c0-13.255-10.745-24-24-24H240V68c-0.026-22.08-17.92-39.974-40-40h-32
	c-13.255,0-24,10.745-24,24v128H8c-4.418,0-8,3.582-8,8v240c0,4.418,3.582,8,8,8h111.6c12.141,24.47,37.083,39.963,64.4,40h240
	c13.255,0,24-10.745,24-24v-56c-0.009-1.512-0.162-3.021-0.456-4.504c-0.088-0.48-0.248-0.936-0.368-1.4
	c-0.176-0.704-0.312-1.424-0.544-2.096H456c13.255,0,24-10.745,24-24v-32c-0.006-1.566-0.164-3.128-0.472-4.664
	c-0.104-0.52-0.296-1-0.432-1.504C478.862,324.862,478.565,323.908,478.208,322.976L478.208,322.976z M296,308
	c-13.255,0-24-10.745-24-24s10.745-24,24-24h160c4.418,0,8,3.582,8,8v32c0,4.418-3.582,8-8,8H296z M440,196c4.418,0,8,3.582,8,8v32
	c0,4.418-3.582,8-8,8H328c-13.255,0-24-10.745-24-24s10.745-24,24-24H440z M112,420H16V196h96V420z M424,460H184
	c-30.913-0.035-55.965-25.087-56-56V196h24c4.418,0,8-3.582,8-8V52c0-4.418,3.582-8,8-8h32c13.255,0,24,10.745,24,24v120
	c-0.048,39.744-32.256,71.952-72,72v16c45.47-0.06,83.421-34.722,87.592-80H296.2c-10.941,14.13-10.941,33.87,0,48H296
	c-22.091,0-40,17.909-40,40c0,22.091,17.909,40,40,40h0.2c-13.325,17.343-10.067,42.204,7.276,55.528
	c3.277,2.518,6.928,4.507,10.82,5.896c-14.762,16.322-13.496,41.521,2.826,56.283c7.364,6.66,16.949,10.331,26.878,10.293h80
	c2.732-0.026,5.438-0.524,8-1.472V452C432,456.418,428.418,460,424,460L424,460z M424,388c4.418,0,8,3.582,8,8v32
	c0,4.418-3.582,8-8,8h-80c-13.255,0-24-10.745-24-24s10.745-24,24-24H424z M464,364c0,4.418-3.582,8-8,8H328
	c-13.255,0-24-10.745-24-24s10.745-24,24-24h128c4.418,0,8,3.582,8,8V364z"/>
<g>
	
		<linearGradient id="SVGID_2_" gradientUnits="userSpaceOnUse" x1="-59.0289" y1="563.625" x2="28.8151" y2="563.625" gradientTransform="matrix(8 0 0 -8 454.9996 4905)">
		<stop  offset="0" style="stop-color:#E93E3A"/>
		<stop  offset="0.353" style="stop-color:#ED683C"/>
		<stop  offset="0.703" style="stop-color:#F3903F"/>
		<stop  offset="1" style="stop-color:#FDC70C"/>
	</linearGradient>
	<path style="fill:url(#SVGID_2_);" d="M32,388h16v16H32V388z"/>
	
		<linearGradient id="SVGID_3_" gradientUnits="userSpaceOnUse" x1="-59.0289" y1="567.625" x2="28.8151" y2="567.625" gradientTransform="matrix(8 0 0 -8 454.9996 4905)">
		<stop  offset="0" style="stop-color:#E93E3A"/>
		<stop  offset="0.353" style="stop-color:#ED683C"/>
		<stop  offset="0.703" style="stop-color:#F3903F"/>
		<stop  offset="1" style="stop-color:#FDC70C"/>
	</linearGradient>
	<path style="fill:url(#SVGID_3_);" d="M32,356h16v16H32V356z"/>
	
		<linearGradient id="SVGID_4_" gradientUnits="userSpaceOnUse" x1="-59.0289" y1="607.625" x2="28.8151" y2="607.625" gradientTransform="matrix(8 0 0 -8 454.9996 4905)">
		<stop  offset="0" style="stop-color:#E93E3A"/>
		<stop  offset="0.353" style="stop-color:#ED683C"/>
		<stop  offset="0.703" style="stop-color:#F3903F"/>
		<stop  offset="1" style="stop-color:#FDC70C"/>
	</linearGradient>
	<path style="fill:url(#SVGID_4_);" d="M304,84h16c0-17.673,14.327-32,32-32V36c-17.673,0-32-14.327-32-32h-16
		c0,17.673-14.327,32-32,32v16C289.673,52,304,66.327,304,84z M298.504,44c5.35-3.558,9.938-8.146,13.496-13.496
		c3.558,5.35,8.146,9.938,13.496,13.496c-5.35,3.558-9.938,8.146-13.496,13.496l-0.072-0.096c-3.528-5.272-8.056-9.8-13.328-13.328
		L298.504,44z"/>
	
		<linearGradient id="SVGID_5_" gradientUnits="userSpaceOnUse" x1="-59.0289" y1="598.625" x2="28.8151" y2="598.625" gradientTransform="matrix(8 0 0 -8 454.9996 4905)">
		<stop  offset="0" style="stop-color:#E93E3A"/>
		<stop  offset="0.353" style="stop-color:#ED683C"/>
		<stop  offset="0.703" style="stop-color:#F3903F"/>
		<stop  offset="1" style="stop-color:#FDC70C"/>
	</linearGradient>
	<path style="fill:url(#SVGID_5_);" d="M416,156h16c0-17.673,14.327-32,32-32v-16c-17.673,0-32-14.327-32-32h-16
		c0,17.673-14.327,32-32,32v16C401.673,124,416,138.327,416,156z M410.504,116c5.35-3.558,9.938-8.146,13.496-13.496
		c3.558,5.35,8.146,9.938,13.496,13.496c-5.35,3.558-9.938,8.146-13.496,13.496l-0.072-0.096c-3.528-5.272-8.056-9.8-13.328-13.328
		L410.504,116z"/>
	
		<linearGradient id="SVGID_6_" gradientUnits="userSpaceOnUse" x1="-59.0289" y1="599.625" x2="28.8151" y2="599.625" gradientTransform="matrix(8 0 0 -8 454.9996 4905)">
		<stop  offset="0" style="stop-color:#E93E3A"/>
		<stop  offset="0.353" style="stop-color:#ED683C"/>
		<stop  offset="0.703" style="stop-color:#F3903F"/>
		<stop  offset="1" style="stop-color:#FDC70C"/>
	</linearGradient>
	<path style="fill:url(#SVGID_6_);" d="M48,148h16c0-17.673,14.327-32,32-32v-16c-17.673,0-32-14.327-32-32H48
		c0,17.673-14.327,32-32,32v16C33.673,116,48,130.327,48,148z M42.504,108c5.35-3.558,9.938-8.146,13.496-13.496
		c3.558,5.35,8.146,9.938,13.496,13.496c-5.35,3.558-9.938,8.146-13.496,13.496l-0.072-0.096c-3.528-5.272-8.056-9.8-13.328-13.328
		L42.504,108z"/>
</g>
<g>
</g>
<g>
</g>
<g>
</g>
<g>
</g>
<g>
</g>
<g>
</g>
<g>
</g>
<g>
</g>
<g>
</g>
<g>
</g>
<g>
</g>
<g>
</g>
<g>
</g>
<g>
</g>
<g>
</g>
</svg>
